<?xml version="1.0" encoding="utf-8"?>
<!-- Generator: Adobe Illustrator 18.0.0, SVG Export Plug-In . SVG Version: 6.00 Build 0)  -->
<!DOCTYPE svg PUBLIC "-//W3C//DTD SVG 1.1//EN" "http://www.w3.org/Graphics/SVG/1.1/DTD/svg11.dtd">
<svg version="1.1" id="Capa_1" xmlns="http://www.w3.org/2000/svg" xmlns:xlink="http://www.w3.org/1999/xlink" x="0px" y="0px"
	 viewBox="0 0 1280 800" enable-background="new 0 0 1280 800" xml:space="preserve">
<g>
	<polygon fill="#FFFF00" points="989.4,68.6 972.8,110.7 929,126.8 972.8,142.9 989.4,185 1006.1,142.9 1049.8,126.8 1006.1,110.7 	
		"/>
	<polygon fill="#FFFF00" points="702.4,120.6 687.2,161.8 647.1,177.5 687.2,193.2 702.4,234.4 717.7,193.2 757.8,177.5 
		717.7,161.8 	"/>
	<polygon fill="#FFFF00" points="847.2,278.9 832.8,317.9 795.1,332.8 832.8,347.6 847.2,386.6 861.6,347.6 899.3,332.8 
		861.6,317.9 	"/>
	<polygon fill="#FFFF00" points="805.3,0 776.9,76.9 702.4,106.1 776.9,135.4 805.3,212.3 833.7,135.4 908.1,106.1 833.7,76.9 	"/>
	<polygon fill="#3366FF" points="643.3,310.2 713.5,380.4 697.1,398.4 626.9,328.2 	"/>
	<path fill="#3366FF" d="M775.5,233.5c-14.7-14.7-39.2-14.7-55.5,0l-58.8,58.8l70.2,70.2l58.8-58.8c14.7-14.7,14.7-39.2,0-55.5
		L775.5,233.5z"/>
	<path fill="#3366FF" d="M251.4,702c-14.7,14.7-14.7,39.2,0,55.5l16.3,16.3c14.7,14.7,39.2,14.7,55.5,0l354.3-354.3l-70.2-70.2
		L251.4,702z"/>
	<polygon fill="#FFFF00" points="937.1,226.9 924.1,261.2 889.8,274.3 924.1,287.3 937.1,321.6 950.2,287.3 984.5,274.3 
		950.2,261.2 	"/>
	<polygon fill="#999900" points="830.8,82.7 806.3,20.7 781.8,82.7 719.7,107.2 781.8,130.1 806.3,192.1 830.8,130.1 892.8,105.6 	
		"/>
	<polygon fill="#999900" points="1003.4,112.7 988.8,75.1 975.7,112.7 938.1,127.3 975.7,140.4 990.4,178 1005.1,140.4 1041,125.7 	
		"/>
	<polygon fill="#999900" points="848.4,285.9 835.4,320.2 801.1,333.3 835.4,346.3 848.4,380.6 861.5,346.3 895.8,333.3 
		861.5,320.2 	"/>
	<polygon fill="#FFFF00" points="839.1,195.3 830.1,215 806.3,222.4 830.1,229.9 839.1,249.6 848.2,229.9 872,222.4 848.2,215 	"/>
	<polygon fill="#999900" points="702.4,130.6 689.4,164.9 655.1,178 689.4,191 702.4,225.3 715.5,191 749.8,178 715.5,164.9 	"/>
	<polygon fill="#999900" points="937.1,237.9 926.8,264.3 899.6,274.3 926.8,284.3 937.1,310.6 947.5,284.3 974.7,274.3 
		947.5,264.3 	"/>
	<polygon fill="#999900" points="839.8,203.9 835.3,217.3 823.5,222.4 835.3,227.6 839.8,241 844.2,227.6 856,222.4 844.2,217.3 	
		"/>
</g>
</svg>
